{
	"asset":{
		"generator":"Khronos glTF Blender I/O v4.4.56",
		"version":"2.0"
	},
	"scene":0,
	"scenes":[
		{
			"name":"Scene",
			"nodes":[
				0,
				1,
				2
			]
		}
	],
	"nodes":[
		{
			"mesh":0,
			"name":"left foot",
			"scale":[
				0.2041001319885254,
				0.2041001319885254,
				0.2041001319885254
			],
			"translation":[
				-0.45672059059143066,
				-2.778904438018799,
				0
			]
		},
		{
			"mesh":1,
			"name":"right foot",
			"scale":[
				0.2041001319885254,
				0.2041001319885254,
				0.2041001319885254
			],
			"translation":[
				0.4561440646648407,
				-2.778904438018799,
				0
			]
		},
		{
			"mesh":2,
			"name":"body"
		}
	],
	"meshes":[
		{
			"name":"Cube.001",
			"primitives":[
				{
					"attributes":{
						"POSITION":0,
						"NORMAL":1,
						"TEXCOORD_0":2
					},
					"indices":3
				}
			]
		},
		{
			"name":"Cube.002",
			"primitives":[
				{
					"attributes":{
						"POSITION":4,
						"NORMAL":5,
						"TEXCOORD_0":6
					},
					"indices":3
				}
			]
		},
		{
			"name":"Sphere.001",
			"primitives":[
				{
					"attributes":{
						"POSITION":7,
						"NORMAL":8,
						"TEXCOORD_0":9
					},
					"indices":10
				}
			]
		}
	],
	"accessors":[
		{
			"bufferView":0,
			"componentType":5126,
			"count":24,
			"max":[
				1,
				1,
				1
			],
			"min":[
				-1,
				-1,
				-2.1367483139038086
			],
			"type":"VEC3"
		},
		{
			"bufferView":1,
			"componentType":5126,
			"count":24,
			"type":"VEC3"
		},
		{
			"bufferView":2,
			"componentType":5126,
			"count":24,
			"type":"VEC2"
		},
		{
			"bufferView":3,
			"componentType":5123,
			"count":36,
			"type":"SCALAR"
		},
		{
			"bufferView":4,
			"componentType":5126,
			"count":24,
			"max":[
				1,
				1,
				1
			],
			"min":[
				-1,
				-1,
				-2.1367483139038086
			],
			"type":"VEC3"
		},
		{
			"bufferView":5,
			"componentType":5126,
			"count":24,
			"type":"VEC3"
		},
		{
			"bufferView":6,
			"componentType":5126,
			"count":24,
			"type":"VEC2"
		},
		{
			"bufferView":7,
			"componentType":5126,
			"count":8504,
			"max":[
				1.4893556833267212,
				0.9975767135620117,
				0.9872307777404785
			],
			"min":[
				-1.4893556833267212,
				-2.8574745655059814,
				-1.4477325677871704
			],
			"type":"VEC3"
		},
		{
			"bufferView":8,
			"componentType":5126,
			"count":8504,
			"type":"VEC3"
		},
		{
			"bufferView":9,
			"componentType":5126,
			"count":8504,
			"type":"VEC2"
		},
		{
			"bufferView":10,
			"componentType":5123,
			"count":12768,
			"type":"SCALAR"
		}
	],
	"bufferViews":[
		{
			"buffer":0,
			"byteLength":288,
			"byteOffset":0,
			"target":34962
		},
		{
			"buffer":0,
			"byteLength":288,
			"byteOffset":288,
			"target":34962
		},
		{
			"buffer":0,
			"byteLength":192,
			"byteOffset":576,
			"target":34962
		},
		{
			"buffer":0,
			"byteLength":72,
			"byteOffset":768,
			"target":34963
		},
		{
			"buffer":0,
			"byteLength":288,
			"byteOffset":840,
			"target":34962
		},
		{
			"buffer":0,
			"byteLength":288,
			"byteOffset":1128,
			"target":34962
		},
		{
			"buffer":0,
			"byteLength":192,
			"byteOffset":1416,
			"target":34962
		},
		{
			"buffer":0,
			"byteLength":102048,
			"byteOffset":1608,
			"target":34962
		},
		{
			"buffer":0,
			"byteLength":102048,
			"byteOffset":103656,
			"target":34962
		},
		{
			"buffer":0,
			"byteLength":68032,
			"byteOffset":205704,
			"target":34962
		},
		{
			"buffer":0,
			"byteLength":25536,
			"byteOffset":273736,
			"target":34963
		}
	],
	"buffers":[
		{
			"byteLength":299272,
			"uri":"character.bin"
		}
	]
}
